# xmcd CD database file
#
# Track frame offsets:
#	150
#	26467
#	45117
#	70680
#	88382
#	107365
#	136644
#	172838
#	206234
#	231049
#	253014
#	278521
#
# Disc length: 4115 seconds
#
# Revision: 0
# Processed by: cddbd v1.5.2PL0 Copyright (c) Steve Scherf et al.
# Submitted via: CDex 1.75
#
DISCID=9010110c
DTITLE=Katrina Fountain - Diplomatic Incident
DYEAR=1998
DGENRE=Jazz
TTITLE0=Happy Mzanje
TTITLE1=Pomodzi
TTITLE2=Rockey St Salsa
TTITLE3=Cruisin' For Apricot
TTITLE4=Penga Babalaas
TTITLE5=Hey Tourist! Just One Chibuku
TTITLE6=Hungry Days
TTITLE7=Mumbo Jumbo
TTITLE8=Murungu
TTITLE9=Inhambane
TTITLE10=How Are You?
TTITLE11=Arcadia Vastrap
EXTD=YEAR: 1998
EXTT0=
EXTT1=
EXTT2=
EXTT3=
EXTT4=
EXTT5=
EXTT6=
EXTT7=
EXTT8=
EXTT9=
EXTT10=
EXTT11=
PLAYORDER=
